<svg id="Capa_1" enable-background="new 0 0 511.998 511.998" viewBox="0 0 511.998 511.998" xmlns="http://www.w3.org/2000/svg"><path d="m469.013 270.476-48.891 17.795c-1.746-24.794-4.725-49.051-8.875-72.28l88.533-29.278c7.423-2.455 12.219-9.092 12.219-16.909s-4.796-14.455-12.219-16.909l-234.952-77.697c-5.694-1.884-11.966-1.884-17.658 0l-234.951 77.697c-7.423 2.455-12.219 9.092-12.219 16.91s4.796 14.455 12.219 16.909l88.518 29.273c-2.233 12.513-4.155 25.532-5.72 38.778-.485 4.114 2.455 7.842 6.568 8.328.299.035.596.052.89.052 3.749 0 6.988-2.806 7.438-6.621 1.442-12.206 3.195-24.207 5.217-35.777l23.849 7.887v18.655c-11.999 3.297-20.842 14.295-20.842 27.326 0 7.857 3.215 14.975 8.396 20.113-3.798 13.887-6.728 30.162-8.778 48.709-5.116-2.925-8.929-5.446-11.478-7.251-.752-.532-1.196-1.411-1.189-2.352.109-14.812.698-29.856 1.752-44.715.293-4.132-2.819-7.719-6.951-8.012-4.122-.288-7.719 2.819-8.012 6.951-1.075 15.174-1.677 30.538-1.789 45.664-.044 5.842 2.769 11.339 7.521 14.705 3.758 2.661 9.953 6.704 18.617 11.28-1.272 16.24-1.951 33.985-2.031 53.176-.024 5.724 3.834 10.721 9.385 12.152 4.913 1.267 12.875 2.776 22.899 2.776 10.023 0 17.985-1.51 22.899-2.777 5.55-1.431 9.408-6.428 9.384-12.151-.043-10.465-.268-20.492-.667-30.088 10.139 2.553 20.671 4.709 31.464 6.434.285 5.893 1.561 12.116 3.779 18.21 3.521 9.672 9.064 18.073 15.612 23.656 5.483 4.675 11.469 7.117 17.133 7.117 1.97 0 3.897-.312 5.754-.912.215-.057.429-.124.642-.202l115.922-42.192c.001 0 .001 0 .002-.001l.022-.008c4.553-1.652 8.507-1.639 12.088.039 8.172 3.829 13.057 15.366 14.779 20.151 1.132 3.142 3.421 5.652 6.447 7.069 1.686.79 3.486 1.187 5.294 1.187 1.443 0 2.891-.253 4.288-.762l34.42-12.528c3.398-1.237 6.096-3.882 7.4-7.258 1.295-3.351 1.082-7.091-.584-10.261-4.826-9.179-12.365-16.032-22.102-20.216l11.981-4.361c3.892-1.417 5.899-5.721 4.482-9.613-1.416-3.893-5.72-5.901-9.613-4.483l-20.523 7.47c1.082-7.936.053-17.253-3.389-26.709-3.319-9.118-8.438-17.103-14.499-22.666l75.245-27.387c4.464-1.628 14.435 5.633 19.917 20.694 2.609 7.169 3.538 14.655 2.549 20.538-.727 4.32-2.41 7.354-4.504 8.116l-23.471 8.542c-3.892 1.417-5.899 5.721-4.482 9.613 1.415 3.891 5.714 5.899 9.613 4.483l23.471-8.542c7.343-2.673 12.506-9.861 14.165-19.723 1.428-8.486.275-18.486-3.245-28.158-7.91-21.736-25.101-34.764-39.139-29.656zm-322.534-9.203c7.356 0 13.341 5.985 13.341 13.341 0 7.357-5.984 13.342-13.341 13.342s-13.342-5.985-13.342-13.342c0-7.356 5.985-13.341 13.342-13.341zm0 151.539c-7.467 0-13.543-1.016-17.273-1.85.35-54.409 5.758-88.522 10.872-108.744 2.059.477 4.2.738 6.401.738 2.202 0 4.342-.261 6.401-.738 5.107 20.197 10.52 54.315 10.872 108.744-3.732.835-9.808 1.85-17.273 1.85zm19.944-118.084c5.181-5.138 8.396-12.257 8.396-20.113 0-13.031-8.843-24.029-20.841-27.326v-13.694l93.19 30.818c2.848.942 5.838 1.413 8.83 1.413 2.99 0 5.982-.471 8.828-1.413l60.754-20.091c3.933-1.3 6.066-5.542 4.767-9.476-1.301-3.932-5.542-6.069-9.476-4.766l-60.755 20.091c-2.656.879-5.582.879-8.238 0l-88.378-29.228 69.634-46.08c.311.16.618.322.941.473 5.569 2.604 12.913 3.925 21.826 3.925s16.256-1.32 21.826-3.925c7.77-3.633 12.048-9.841 12.048-17.481 0-14.316-14.879-25.53-33.874-25.53s-33.874 11.214-33.874 25.53c0 2.034.313 3.964.905 5.773l-77.556 51.322-128.448-42.477c-1.677-.555-1.928-1.91-1.928-2.668s.251-2.113 1.928-2.668l234.952-77.698c2.656-.879 5.582-.879 8.238 0l234.952 77.698c1.677.555 1.928 1.91 1.928 2.668s-.251 2.113-1.928 2.668l-142.601 47.157c-3.933 1.3-6.066 5.543-4.767 9.476 1.301 3.932 5.544 6.068 9.476 4.766l39.692-13.126c4.048 23.186 6.996 48.186 8.59 72.863 0 0-65.272 23.757-65.278 23.759-.002.001-.003.002-.005.002l-115.919 42.19c-.011.004-.021.009-.032.013-6.03 2.208-10.581 7.467-12.928 14.747-11.747-1.898-23.157-4.326-34.04-7.235-1.877-28.621-5.498-52.846-10.835-72.357zm70.604-136.873c0-4.971 8.071-10.53 18.874-10.53s18.874 5.56 18.874 10.53c0 4.401-9.784 6.406-18.874 6.406s-18.874-2.005-18.874-6.406zm116.952 176.93c4.54 3.871 8.64 10.203 11.249 17.372s3.539 14.655 2.549 20.538c-.727 4.319-2.41 7.353-4.503 8.115l-96.411 35.091c1.068-8.157-.144-17.565-3.463-26.682s-8.437-17.103-14.497-22.666l96.411-35.091c2.088-.761 5.331.481 8.665 3.323zm-126.545 67.525c-2.609-7.169-3.539-14.655-2.549-20.538.726-4.319 2.409-7.351 4.501-8.115.001 0 .002 0 .002-.001l.005-.002c.405-.146.852-.219 1.334-.219 2.014 0 4.641 1.251 7.327 3.542 4.54 3.871 8.64 10.203 11.249 17.372 2.609 7.169 3.539 14.655 2.549 20.538-.727 4.32-2.41 7.354-4.504 8.116-2.09.762-5.332-.48-8.666-3.322-4.539-3.87-8.639-10.202-11.248-17.371zm210.355-5.323-29.278 10.657c-2.609-6.556-7.317-15.676-14.856-21.928l8-2.912c4.082-.405 25.654-1.715 36.134 14.183zm-49.738-74.603c4.54 3.871 8.641 10.203 11.25 17.372 5.479 15.056 2.506 27.022-1.95 28.652l-14.565 5.301c1.068-8.157-.144-17.565-3.463-26.682-3.318-9.117-8.435-17.104-14.495-22.667l14.557-5.299c2.096-.76 5.333.481 8.666 3.323z"/></svg>