<svg width="188" height="188" viewBox="0 0 188 188" fill="none" xmlns="http://www.w3.org/2000/svg">
<ellipse cx="94" cy="101.5" rx="89" ry="86.5" fill="#ECDD7B" fill-opacity="0.44"/>
<g clip-path="url(#clip0)">
<path d="M122.33 98.4098C116.755 94.6659 107.505 90.4785 93.9963 90.4785C80.3627 90.4785 71.0647 94.7452 65.5055 98.5166V98.6907C66.4657 98.3037 67.5776 98.3183 68.5646 98.8203C73.2029 101.179 82.7549 105.199 93.9963 105.199C105.238 105.199 114.785 101.185 119.42 98.8291C120.356 98.3529 121.405 98.318 122.33 98.6462V98.4098Z" fill="#FF4155"/>
<path d="M158.74 121.992C157.442 121.37 156.048 120.838 154.562 120.398L130.64 111.269C129.347 110.738 128.043 110.238 126.723 109.773C122.829 114.722 112.423 125.163 93.996 125.163C90.5848 125.163 87.4497 124.804 84.5783 124.189C84.6272 124.296 84.6723 124.403 84.7234 124.51C82.626 124.834 76.5241 125.92 70.489 128.387C60.547 132.451 55.2918 138.399 55.2918 145.586V160.283H148.712C148.712 154.119 148.712 148.504 148.712 144.422C148.712 133.619 156.192 126.974 161.583 123.587C160.686 123.011 159.743 122.474 158.74 121.992Z" fill="#FA554E"/>
<path d="M55.843 160.284C55.843 155.343 55.843 150.247 55.843 145.587C55.843 128.601 85.5521 124.949 85.5521 124.949C85.4445 124.738 85.3421 124.53 85.2437 124.322C72.214 121.749 64.5046 113.883 61.2711 109.776C59.9562 110.239 58.6571 110.737 57.369 111.265L33.4214 120.403C31.9486 120.84 30.5654 121.368 29.2773 121.984C28.2676 122.468 27.3191 123.008 26.4162 123.588C31.8072 126.976 39.2872 133.62 39.2872 144.423V160.284H55.843V160.284Z" fill="#EA362E"/>
<path d="M55.2922 159.549V179.259C67.0165 184.859 80.1401 188 94 188C114.586 188 133.552 181.08 148.712 169.448C148.712 166.08 148.712 162.735 148.712 159.549H55.2922V159.549Z" fill="#EA362E"/>
<path d="M55.843 159.549H39.2876V169.447C44.4007 173.371 49.9478 176.755 55.843 179.522C55.843 174.64 55.843 167.246 55.843 159.549Z" fill="#CB1710"/>
<path d="M93.996 105.358C102.208 105.358 109.518 103.242 114.72 101.163C113.719 97.9444 113.358 94.3842 113.26 91.5293C111.315 93.7952 109.273 95.6906 107.322 97.2053C103.521 100.157 98.8307 101.76 94 101.76C89.1693 101.76 84.4788 100.157 80.6781 97.2053C78.7272 95.6903 76.6853 93.7948 74.7399 91.5293C74.6415 94.3842 74.2809 97.9444 73.2796 101.163C78.483 103.243 85.7908 105.358 93.996 105.358Z" fill="#FFAA7B"/>
<path d="M127.704 105.525L124.275 99.8375C123.271 98.1731 121.152 97.5562 119.42 98.4367C114.785 100.792 105.237 104.806 93.9963 104.806C92.8812 104.806 91.7833 104.765 90.7045 104.692C88.9886 105.653 85.1868 108.215 83.5811 112.741C82.3216 116.292 82.7064 120.248 84.7237 124.511C84.52 124.542 84.2776 124.581 84.0022 124.628C87.0334 125.312 90.3604 125.715 93.9963 125.715C113.227 125.715 123.838 114.476 127.483 109.694C128.406 108.482 128.491 106.83 127.704 105.525Z" fill="#FF9D99"/>
<path d="M63.707 99.8304L60.2808 105.519C59.4954 106.823 59.5809 108.474 60.5041 109.685C63.5752 113.716 71.5957 122.335 85.5517 124.947C78.2983 110.732 91.7866 104.755 91.7866 104.755L91.7862 104.754C81.5112 104.281 72.8948 100.631 68.5638 98.4285C66.8307 97.5468 64.7106 98.1645 63.707 99.8304Z" fill="#FD817B"/>
<path d="M26.7742 123.353C20.4487 127.273 16.6182 133.402 14.3188 139.825C20.5592 151.7 29.3717 162.01 40.022 170.011C40.022 160.237 40.022 150.585 40.022 144.422C40.0223 133.366 32.1862 126.663 26.7742 123.353Z" fill="#FA554E"/>
<path d="M161.226 123.353C155.814 126.663 147.978 133.366 147.978 144.422V170.011C158.628 162.01 167.44 151.7 173.681 139.825C171.382 133.402 167.551 127.273 161.226 123.353Z" fill="#FF9D99"/>
<path d="M87.5584 0.401628C68.215 3.0373 66.3765 14.0045 66.368 18.0281C66.3662 18.8719 65.8988 19.654 65.1402 20.023C55.0785 24.9176 60.5033 49.2427 60.5033 49.2427C61.5138 49.3103 63.3057 49.7193 64.0944 50.1016C64.2875 48.8994 64.603 46.9816 65.0484 45.8378C65.3876 44.9661 65.8117 44.0856 66.3423 43.2535C67.2625 41.8101 67.6815 40.1071 67.5566 38.4044C67.1949 33.483 66.635 24.52 73.1313 21.5968C78.6347 19.1205 85.3858 20.5543 89.6907 21.986C92.4865 22.9157 95.515 22.9157 98.3111 21.986C102.616 20.5543 109.367 19.1205 114.871 21.5968C121.348 24.5115 120.806 33.4279 120.448 38.3622C120.324 40.0777 120.732 41.7983 121.659 43.2531C122.206 44.112 122.641 45.0226 122.985 45.9219C123.414 47.0396 123.719 48.9291 123.907 50.1019C124.901 49.6202 127.057 49.0955 128.273 49.2673C128.421 44.1091 128.897 37.8136 128.897 37.8136C134.629 9.73811 108.386 -2.43636 87.5584 0.401628Z" fill="#945230"/>
<path d="M90.298 22.1708C90.1188 21.8579 89.922 21.5495 89.6892 21.251C82.0591 11.479 89.2126 3.37811 93.1606 0.00439453C91.2685 0.020918 89.3922 0.151637 87.5584 0.401691C68.215 3.03736 66.3765 14.0045 66.368 18.0282C66.3662 18.872 65.8988 19.6541 65.1402 20.0231C55.0781 24.9177 60.5033 49.2428 60.5033 49.2428C61.5138 49.3103 63.3057 49.7194 64.0944 50.1016C64.2876 48.8995 64.603 46.9816 65.0484 45.8378C65.3876 44.9661 65.8117 44.0856 66.342 43.2536C67.2621 41.8102 67.6811 40.1072 67.5563 38.4045C67.1946 33.4831 66.6346 24.52 73.1305 21.5969C78.6339 19.1205 85.385 20.5544 89.69 21.9861C89.8912 22.0529 90.0942 22.1135 90.298 22.1708Z" fill="#753616"/>
<path d="M130.446 49.2023C128.939 47.8216 125.571 48.5215 124.273 49.3668C124.557 51.137 124.574 52.948 124.328 54.7362L122.797 65.8884C122.797 66.7873 122.769 67.6692 122.717 68.5358C126.451 69.662 128.672 66.3099 128.985 64.0095C129.119 63.0192 129.339 62.0432 129.644 61.0907C130.637 57.9894 134.22 52.6615 130.446 49.2023Z" fill="#FFAA7B"/>
<path d="M57.5544 49.2023C59.061 47.8216 62.4292 48.5215 63.7269 49.3668C63.4427 51.137 63.4265 52.948 63.6721 54.7362L65.2033 65.8884C65.2033 66.7873 65.2316 67.6692 65.2837 68.5358C61.5498 69.662 59.328 66.3099 59.0155 64.0095C58.8811 63.0192 58.6611 62.0432 58.356 61.0907C57.3628 57.9894 53.7798 52.6615 57.5544 49.2023Z" fill="#FC9460"/>
<path d="M123.719 45.9214C123.374 45.0221 122.94 44.1115 122.393 43.2526C121.466 41.7978 121.058 40.0772 121.182 38.3617C121.539 33.4274 121.348 23.7767 114.87 20.8619C109.366 18.3856 102.616 19.8195 98.3111 21.2508C95.5154 22.1805 92.4854 22.1805 89.6896 21.2508C89.4667 21.1766 89.2357 21.1028 89 21.029C83.7562 24.6652 83.6251 33.4333 83.9648 38.0558C84.0918 39.7842 83.6662 41.5129 82.7321 42.9787C82.1938 43.8236 81.7631 44.7174 81.4187 45.6023C80.3013 48.4729 79.9756 51.586 80.3942 54.6344L81.9493 65.9588C81.9493 82.2391 90.6399 93.3051 98.0324 99.0457C99.2772 100.012 100.62 100.827 102.027 101.5C103.915 100.751 105.7 99.7397 107.323 98.4798C114.604 92.8255 123.165 81.9252 123.165 65.8887L124.696 54.7364C125.104 51.7633 124.794 48.7267 123.719 45.9214Z" fill="#FFC7AB"/>
<path d="M98.1018 98.4799C90.8202 92.8255 82.2599 81.9252 82.2599 65.8887L80.7284 54.7339C80.316 51.7314 80.6369 48.6646 81.7378 45.8373C82.0771 44.9656 82.5012 44.0851 83.0317 43.253C83.9519 41.8092 84.3709 40.1066 84.2457 38.4039C83.8994 33.6915 84.0485 24.6043 89.7649 21.2743C89.7399 21.2662 89.7146 21.2592 89.6896 21.2508C85.3843 19.8195 78.6339 18.3856 73.1309 20.8619C66.6346 23.7847 66.4606 33.4825 66.8222 38.4039C66.9475 40.1066 66.5281 41.8092 65.608 43.253C65.0777 44.0851 64.6536 44.9656 64.3144 45.8373C63.2139 48.6646 62.893 51.7314 63.3053 54.7339L64.8369 65.8887C64.8369 81.9252 73.3971 92.8252 80.6788 98.4799C84.4796 101.431 89.17 103.034 94.0007 103.034C97.0205 103.034 99.9855 102.408 102.713 101.217C101.077 100.503 99.5269 99.5866 98.1018 98.4799Z" fill="#FFAA7B"/>
<path d="M122.957 70.1545C121.746 73.1431 119.229 76.7386 114.616 78.7398C113.764 73.6623 110.101 68.5782 105.21 67.4693L97.7343 65.2732C96.4348 64.8913 95.1335 65.5581 94.6103 66.6901C94.5148 66.8969 94.2258 66.8969 94.1304 66.6901C93.6071 65.5581 92.3058 64.8916 91.0063 65.2732L83.5308 67.4693C78.5432 68.6002 74.8299 73.8646 74.0753 79.0405C68.9725 77.1161 66.3163 73.2991 65.0425 70.1545V70.156C65.0425 71.5781 65.1751 72.9995 65.4361 74.3974C68.6116 91.4176 78.5098 98.0344 85.992 101.848C91.0015 104.401 96.9434 104.402 101.954 101.852C109.435 98.0428 119.381 91.425 122.562 74.4018C122.824 73.0017 122.957 71.5785 122.957 70.1545ZM102.695 89.3963C99.4843 90.5309 95.9806 88.5113 95.5694 85.1692C95.5642 85.1259 95.5591 85.0825 95.5543 85.0385C95.4867 84.415 94.965 83.9362 94.3301 83.9362C93.6949 83.9362 93.1731 84.4154 93.1059 85.0385C93.1008 85.0825 93.096 85.1259 93.0908 85.1692C92.6796 88.5113 89.1759 90.5309 85.9652 89.3963C81.5476 87.8354 79.6474 84.8791 78.8304 82.7116C81.2237 79.4378 84.748 77.0885 88.8043 76.1933L90.1398 75.8985C92.0859 75.4688 93.591 73.569 94.1428 71.5447C94.206 71.3123 94.5365 71.3123 94.6 71.5447C95.1519 73.569 96.6566 75.4688 98.6031 75.8985L99.9385 76.1933C103.776 77.0404 107.139 79.1881 109.518 82.1895C109.024 84.3787 107.48 87.7054 102.695 89.3963Z" fill="#945230"/>
<path d="M89.2864 89.5017C88.2385 89.7962 87.0848 89.7918 85.9641 89.3959C81.5465 87.835 79.6459 84.8788 78.8293 82.7113C80.1853 80.8566 81.9045 79.2998 83.877 78.1347C78.3229 74.4925 81.6798 68.7945 82.2981 67.8428C77.9389 69.4892 74.766 74.3005 74.0749 79.0398C68.9721 77.1154 66.3159 73.2984 65.0421 70.1538V70.1553C65.0421 71.5774 65.1747 72.9988 65.4358 74.3967C68.6112 91.4169 78.5095 98.0337 85.9916 101.847C89.6988 103.736 93.9159 104.224 97.8889 103.319C87.4204 100.489 88.8726 91.3641 89.2864 89.5017Z" fill="#753616"/>
</g>
<defs>
<clipPath id="clip0">
<rect width="188" height="188" fill="white"/>
</clipPath>
</defs>
</svg>
