<svg width="228" height="1093" viewBox="0 0 228 1093" fill="none" xmlns="http://www.w3.org/2000/svg">
<path d="M98.3835 880C97.6995 880 97.1865 879.848 96.8445 879.544C96.5405 879.202 96.3885 878.765 96.3885 878.233C96.3885 877.625 96.6735 877.036 97.2435 876.466L110.582 862.045C112.596 859.841 114.059 857.808 114.971 855.946C115.921 854.046 116.396 852.108 116.396 850.132C116.396 847.662 115.655 845.781 114.173 844.489C112.691 843.197 110.525 842.551 107.675 842.551C104.027 842.551 100.721 843.786 97.7565 846.256C97.1105 846.75 96.5595 846.864 96.1035 846.598C95.6475 846.294 95.3815 845.838 95.3055 845.23C95.2295 844.622 95.4575 844.109 95.9895 843.691C97.4335 842.399 99.2005 841.354 101.291 840.556C103.419 839.758 105.604 839.359 107.846 839.359C111.722 839.359 114.705 840.29 116.795 842.152C118.923 843.976 119.987 846.579 119.987 849.961C119.987 852.355 119.398 854.73 118.22 857.086C117.042 859.404 115.237 861.855 112.805 864.439L101.006 876.922H120.329C121.431 876.922 121.982 877.416 121.982 878.404C121.982 879.468 121.431 880 120.329 880H98.3835ZM142.422 880.456C137.9 880.456 134.461 878.708 132.105 875.212C129.787 871.716 128.628 866.624 128.628 859.936C128.628 853.172 129.787 848.061 132.105 844.603C134.461 841.107 137.9 839.359 142.422 839.359C146.982 839.359 150.421 841.088 152.739 844.546C155.057 848.004 156.216 853.115 156.216 859.879C156.216 866.567 155.038 871.678 152.682 875.212C150.326 878.708 146.906 880.456 142.422 880.456ZM142.422 877.321C145.88 877.321 148.445 875.896 150.117 873.046C151.789 870.196 152.625 865.807 152.625 859.879C152.625 853.875 151.789 849.486 150.117 846.712C148.483 843.9 145.918 842.494 142.422 842.494C138.964 842.494 136.399 843.9 134.727 846.712C133.055 849.524 132.219 853.913 132.219 859.879C132.219 865.807 133.055 870.196 134.727 873.046C136.399 875.896 138.964 877.321 142.422 877.321ZM168.278 880C167.176 880 166.625 879.468 166.625 878.404C166.625 877.416 167.176 876.922 168.278 876.922H176.201V843.976L169.931 848.251C169.323 848.669 168.772 848.745 168.278 848.479C167.784 848.175 167.499 847.738 167.423 847.168C167.347 846.56 167.632 846.047 168.278 845.629L176.144 840.157C176.524 839.929 176.866 839.758 177.17 839.644C177.512 839.53 177.854 839.473 178.196 839.473C178.614 839.473 178.956 839.606 179.222 839.872C179.526 840.138 179.678 840.537 179.678 841.069V876.922H187.031C188.133 876.922 188.684 877.416 188.684 878.404C188.684 879.468 188.133 880 187.031 880H168.278ZM208.156 880.456C206.37 880.456 204.527 880.076 202.627 879.316C200.727 878.556 199.093 877.473 197.725 876.067C197.231 875.649 197.022 875.136 197.098 874.528C197.212 873.92 197.497 873.483 197.953 873.217C198.447 872.951 198.998 873.084 199.606 873.616C200.898 874.87 202.285 875.801 203.767 876.409C205.249 876.979 206.731 877.264 208.213 877.264C212.127 877.264 215.148 875.782 217.276 872.818C219.404 869.816 220.468 865.37 220.468 859.48V856.117C219.746 858.815 218.359 860.943 216.307 862.501C214.293 864.021 211.899 864.781 209.125 864.781C206.731 864.781 204.603 864.249 202.741 863.185C200.917 862.083 199.473 860.582 198.409 858.682C197.383 856.782 196.87 854.616 196.87 852.184C196.87 849.676 197.402 847.472 198.466 845.572C199.568 843.634 201.05 842.114 202.912 841.012C204.812 839.91 206.978 839.359 209.41 839.359C214.084 839.359 217.675 841.069 220.183 844.489C222.691 847.871 223.945 852.64 223.945 858.796C223.945 865.788 222.558 871.146 219.784 874.87C217.01 878.594 213.134 880.456 208.156 880.456ZM209.695 861.646C212.469 861.646 214.711 860.753 216.421 858.967C218.169 857.181 219.043 854.882 219.043 852.07C219.043 849.22 218.169 846.902 216.421 845.116C214.711 843.33 212.469 842.437 209.695 842.437C206.959 842.437 204.717 843.33 202.969 845.116C201.259 846.902 200.404 849.22 200.404 852.07C200.404 854.882 201.259 857.181 202.969 858.967C204.717 860.753 206.959 861.646 209.695 861.646ZM98.3835 967C97.6995 967 97.1865 966.848 96.8445 966.544C96.5405 966.202 96.3885 965.765 96.3885 965.233C96.3885 964.625 96.6735 964.036 97.2435 963.466L110.582 949.045C112.596 946.841 114.059 944.808 114.971 942.946C115.921 941.046 116.396 939.108 116.396 937.132C116.396 934.662 115.655 932.781 114.173 931.489C112.691 930.197 110.525 929.551 107.675 929.551C104.027 929.551 100.721 930.786 97.7565 933.256C97.1105 933.75 96.5595 933.864 96.1035 933.598C95.6475 933.294 95.3815 932.838 95.3055 932.23C95.2295 931.622 95.4575 931.109 95.9895 930.691C97.4335 929.399 99.2005 928.354 101.291 927.556C103.419 926.758 105.604 926.359 107.846 926.359C111.722 926.359 114.705 927.29 116.795 929.152C118.923 930.976 119.987 933.579 119.987 936.961C119.987 939.355 119.398 941.73 118.22 944.086C117.042 946.404 115.237 948.855 112.805 951.439L101.006 963.922H120.329C121.431 963.922 121.982 964.416 121.982 965.404C121.982 966.468 121.431 967 120.329 967H98.3835ZM142.422 967.456C137.9 967.456 134.461 965.708 132.105 962.212C129.787 958.716 128.628 953.624 128.628 946.936C128.628 940.172 129.787 935.061 132.105 931.603C134.461 928.107 137.9 926.359 142.422 926.359C146.982 926.359 150.421 928.088 152.739 931.546C155.057 935.004 156.216 940.115 156.216 946.879C156.216 953.567 155.038 958.678 152.682 962.212C150.326 965.708 146.906 967.456 142.422 967.456ZM142.422 964.321C145.88 964.321 148.445 962.896 150.117 960.046C151.789 957.196 152.625 952.807 152.625 946.879C152.625 940.875 151.789 936.486 150.117 933.712C148.483 930.9 145.918 929.494 142.422 929.494C138.964 929.494 136.399 930.9 134.727 933.712C133.055 936.524 132.219 940.913 132.219 946.879C132.219 952.807 133.055 957.196 134.727 960.046C136.399 962.896 138.964 964.321 142.422 964.321ZM168.278 967C167.176 967 166.625 966.468 166.625 965.404C166.625 964.416 167.176 963.922 168.278 963.922H176.201V930.976L169.931 935.251C169.323 935.669 168.772 935.745 168.278 935.479C167.784 935.175 167.499 934.738 167.423 934.168C167.347 933.56 167.632 933.047 168.278 932.629L176.144 927.157C176.524 926.929 176.866 926.758 177.17 926.644C177.512 926.53 177.854 926.473 178.196 926.473C178.614 926.473 178.956 926.606 179.222 926.872C179.526 927.138 179.678 927.537 179.678 928.069V963.922H187.031C188.133 963.922 188.684 964.416 188.684 965.404C188.684 966.468 188.133 967 187.031 967H168.278ZM210.778 967.456C206.332 967.456 202.874 966.506 200.404 964.606C197.934 962.668 196.699 959.951 196.699 956.455C196.699 953.909 197.402 951.762 198.808 950.014C200.214 948.228 202.076 947.05 204.394 946.48C202.304 945.758 200.651 944.542 199.435 942.832C198.257 941.122 197.668 939.165 197.668 936.961C197.668 933.617 198.846 931.014 201.202 929.152C203.596 927.29 206.788 926.359 210.778 926.359C214.768 926.359 217.941 927.29 220.297 929.152C222.691 931.014 223.888 933.617 223.888 936.961C223.888 939.165 223.28 941.122 222.064 942.832C220.886 944.542 219.252 945.758 217.162 946.48C219.48 947.088 221.342 948.266 222.748 950.014C224.154 951.762 224.857 953.909 224.857 956.455C224.857 959.951 223.622 962.668 221.152 964.606C218.682 966.506 215.224 967.456 210.778 967.456ZM210.778 945.112C213.78 945.112 216.136 944.409 217.846 943.003C219.556 941.597 220.411 939.659 220.411 937.189C220.411 934.719 219.556 932.8 217.846 931.432C216.136 930.064 213.78 929.38 210.778 929.38C207.776 929.38 205.42 930.064 203.71 931.432C202 932.8 201.145 934.719 201.145 937.189C201.145 939.659 202 941.597 203.71 943.003C205.42 944.409 207.776 945.112 210.778 945.112ZM210.778 964.435C217.808 964.435 221.323 961.718 221.323 956.284C221.323 950.888 217.808 948.19 210.778 948.19C203.748 948.19 200.233 950.888 200.233 956.284C200.233 961.718 203.748 964.435 210.778 964.435Z" fill="#ECDD7B"/>
<path d="M98.3835 58C97.6995 58 97.1865 57.848 96.8445 57.544C96.5405 57.202 96.3885 56.765 96.3885 56.233C96.3885 55.625 96.6735 55.036 97.2435 54.466L110.582 40.045C112.596 37.841 114.059 35.808 114.971 33.946C115.921 32.046 116.396 30.108 116.396 28.132C116.396 25.662 115.655 23.781 114.173 22.489C112.691 21.197 110.525 20.551 107.675 20.551C104.027 20.551 100.721 21.786 97.7565 24.256C97.1105 24.75 96.5595 24.864 96.1035 24.598C95.6475 24.294 95.3815 23.838 95.3055 23.23C95.2295 22.622 95.4575 22.109 95.9895 21.691C97.4335 20.399 99.2005 19.354 101.291 18.556C103.419 17.758 105.604 17.359 107.846 17.359C111.722 17.359 114.705 18.29 116.795 20.152C118.923 21.976 119.987 24.579 119.987 27.961C119.987 30.355 119.398 32.73 118.22 35.086C117.042 37.404 115.237 39.855 112.805 42.439L101.006 54.922H120.329C121.431 54.922 121.982 55.416 121.982 56.404C121.982 57.468 121.431 58 120.329 58H98.3835ZM142.422 58.456C137.9 58.456 134.461 56.708 132.105 53.212C129.787 49.716 128.628 44.624 128.628 37.936C128.628 31.172 129.787 26.061 132.105 22.603C134.461 19.107 137.9 17.359 142.422 17.359C146.982 17.359 150.421 19.088 152.739 22.546C155.057 26.004 156.216 31.115 156.216 37.879C156.216 44.567 155.038 49.678 152.682 53.212C150.326 56.708 146.906 58.456 142.422 58.456ZM142.422 55.321C145.88 55.321 148.445 53.896 150.117 51.046C151.789 48.196 152.625 43.807 152.625 37.879C152.625 31.875 151.789 27.486 150.117 24.712C148.483 21.9 145.918 20.494 142.422 20.494C138.964 20.494 136.399 21.9 134.727 24.712C133.055 27.524 132.219 31.913 132.219 37.879C132.219 43.807 133.055 48.196 134.727 51.046C136.399 53.896 138.964 55.321 142.422 55.321ZM166.739 58C166.055 58 165.542 57.848 165.2 57.544C164.896 57.202 164.744 56.765 164.744 56.233C164.744 55.625 165.029 55.036 165.599 54.466L178.937 40.045C180.951 37.841 182.414 35.808 183.326 33.946C184.276 32.046 184.751 30.108 184.751 28.132C184.751 25.662 184.01 23.781 182.528 22.489C181.046 21.197 178.88 20.551 176.03 20.551C172.382 20.551 169.076 21.786 166.112 24.256C165.466 24.75 164.915 24.864 164.459 24.598C164.003 24.294 163.737 23.838 163.661 23.23C163.585 22.622 163.813 22.109 164.345 21.691C165.789 20.399 167.556 19.354 169.646 18.556C171.774 17.758 173.959 17.359 176.201 17.359C180.077 17.359 183.06 18.29 185.15 20.152C187.278 21.976 188.342 24.579 188.342 27.961C188.342 30.355 187.753 32.73 186.575 35.086C185.397 37.404 183.592 39.855 181.16 42.439L169.361 54.922H188.684C189.786 54.922 190.337 55.416 190.337 56.404C190.337 57.468 189.786 58 188.684 58H166.739ZM202.456 58C201.354 58 200.803 57.468 200.803 56.404C200.803 55.416 201.354 54.922 202.456 54.922H210.379V21.976L204.109 26.251C203.501 26.669 202.95 26.745 202.456 26.479C201.962 26.175 201.677 25.738 201.601 25.168C201.525 24.56 201.81 24.047 202.456 23.629L210.322 18.157C210.702 17.929 211.044 17.758 211.348 17.644C211.69 17.53 212.032 17.473 212.374 17.473C212.792 17.473 213.134 17.606 213.4 17.872C213.704 18.138 213.856 18.537 213.856 19.069V54.922H221.209C222.311 54.922 222.862 55.416 222.862 56.404C222.862 57.468 222.311 58 221.209 58H202.456ZM98.3835 145C97.6995 145 97.1865 144.848 96.8445 144.544C96.5405 144.202 96.3885 143.765 96.3885 143.233C96.3885 142.625 96.6735 142.036 97.2435 141.466L110.582 127.045C112.596 124.841 114.059 122.808 114.971 120.946C115.921 119.046 116.396 117.108 116.396 115.132C116.396 112.662 115.655 110.781 114.173 109.489C112.691 108.197 110.525 107.551 107.675 107.551C104.027 107.551 100.721 108.786 97.7565 111.256C97.1105 111.75 96.5595 111.864 96.1035 111.598C95.6475 111.294 95.3815 110.838 95.3055 110.23C95.2295 109.622 95.4575 109.109 95.9895 108.691C97.4335 107.399 99.2005 106.354 101.291 105.556C103.419 104.758 105.604 104.359 107.846 104.359C111.722 104.359 114.705 105.29 116.795 107.152C118.923 108.976 119.987 111.579 119.987 114.961C119.987 117.355 119.398 119.73 118.22 122.086C117.042 124.404 115.237 126.855 112.805 129.439L101.006 141.922H120.329C121.431 141.922 121.982 142.416 121.982 143.404C121.982 144.468 121.431 145 120.329 145H98.3835ZM142.422 145.456C137.9 145.456 134.461 143.708 132.105 140.212C129.787 136.716 128.628 131.624 128.628 124.936C128.628 118.172 129.787 113.061 132.105 109.603C134.461 106.107 137.9 104.359 142.422 104.359C146.982 104.359 150.421 106.088 152.739 109.546C155.057 113.004 156.216 118.115 156.216 124.879C156.216 131.567 155.038 136.678 152.682 140.212C150.326 143.708 146.906 145.456 142.422 145.456ZM142.422 142.321C145.88 142.321 148.445 140.896 150.117 138.046C151.789 135.196 152.625 130.807 152.625 124.879C152.625 118.875 151.789 114.486 150.117 111.712C148.483 108.9 145.918 107.494 142.422 107.494C138.964 107.494 136.399 108.9 134.727 111.712C133.055 114.524 132.219 118.913 132.219 124.879C132.219 130.807 133.055 135.196 134.727 138.046C136.399 140.896 138.964 142.321 142.422 142.321ZM166.739 145C166.055 145 165.542 144.848 165.2 144.544C164.896 144.202 164.744 143.765 164.744 143.233C164.744 142.625 165.029 142.036 165.599 141.466L178.937 127.045C180.951 124.841 182.414 122.808 183.326 120.946C184.276 119.046 184.751 117.108 184.751 115.132C184.751 112.662 184.01 110.781 182.528 109.489C181.046 108.197 178.88 107.551 176.03 107.551C172.382 107.551 169.076 108.786 166.112 111.256C165.466 111.75 164.915 111.864 164.459 111.598C164.003 111.294 163.737 110.838 163.661 110.23C163.585 109.622 163.813 109.109 164.345 108.691C165.789 107.399 167.556 106.354 169.646 105.556C171.774 104.758 173.959 104.359 176.201 104.359C180.077 104.359 183.06 105.29 185.15 107.152C187.278 108.976 188.342 111.579 188.342 114.961C188.342 117.355 187.753 119.73 186.575 122.086C185.397 124.404 183.592 126.855 181.16 129.439L169.361 141.922H188.684C189.786 141.922 190.337 142.416 190.337 143.404C190.337 144.468 189.786 145 188.684 145H166.739ZM210.778 145.456C206.256 145.456 202.817 143.708 200.461 140.212C198.143 136.716 196.984 131.624 196.984 124.936C196.984 118.172 198.143 113.061 200.461 109.603C202.817 106.107 206.256 104.359 210.778 104.359C215.338 104.359 218.777 106.088 221.095 109.546C223.413 113.004 224.572 118.115 224.572 124.879C224.572 131.567 223.394 136.678 221.038 140.212C218.682 143.708 215.262 145.456 210.778 145.456ZM210.778 142.321C214.236 142.321 216.801 140.896 218.473 138.046C220.145 135.196 220.981 130.807 220.981 124.879C220.981 118.875 220.145 114.486 218.473 111.712C216.839 108.9 214.274 107.494 210.778 107.494C207.32 107.494 204.755 108.9 203.083 111.712C201.411 114.524 200.575 118.913 200.575 124.879C200.575 130.807 201.411 135.196 203.083 138.046C204.755 140.896 207.32 142.321 210.778 142.321Z" fill="#ECDD7B"/>
<rect x="26" y="1027" width="96" height="2" rx="1" transform="rotate(-90 26 1027)" fill="#ECDD7B"/>
<rect x="26" y="1060" width="22" height="2" rx="1" transform="rotate(-90 26 1060)" fill="#ECDD7B"/>
<rect x="26" y="1093" width="22" height="2" rx="1" transform="rotate(-90 26 1093)" fill="#ECDD7B"/>
<rect x="146" y="904" width="27" height="2" rx="1" fill="#ECDD7B"/>
<rect x="146" y="82" width="27" height="2" rx="1" fill="#ECDD7B"/>
<rect x="26" y="469" width="361" height="2.00002" rx="1.00001" transform="rotate(-90 26 469)" fill="#ECDD7B"/>
<rect x="26" y="880" width="361" height="2.00002" rx="1.00001" transform="rotate(-90 26 880)" fill="#ECDD7B"/>
<path d="M98.3835 513C97.6995 513 97.1865 512.848 96.8445 512.544C96.5405 512.202 96.3885 511.765 96.3885 511.233C96.3885 510.625 96.6735 510.036 97.2435 509.466L110.582 495.045C112.596 492.841 114.059 490.808 114.971 488.946C115.921 487.046 116.396 485.108 116.396 483.132C116.396 480.662 115.655 478.781 114.173 477.489C112.691 476.197 110.525 475.551 107.675 475.551C104.027 475.551 100.721 476.786 97.7565 479.256C97.1105 479.75 96.5595 479.864 96.1035 479.598C95.6475 479.294 95.3815 478.838 95.3055 478.23C95.2295 477.622 95.4575 477.109 95.9895 476.691C97.4335 475.399 99.2005 474.354 101.291 473.556C103.419 472.758 105.604 472.359 107.846 472.359C111.722 472.359 114.705 473.29 116.795 475.152C118.923 476.976 119.987 479.579 119.987 482.961C119.987 485.355 119.398 487.73 118.22 490.086C117.042 492.404 115.237 494.855 112.805 497.439L101.006 509.922H120.329C121.431 509.922 121.982 510.416 121.982 511.404C121.982 512.468 121.431 513 120.329 513H98.3835ZM142.422 513.456C137.9 513.456 134.461 511.708 132.105 508.212C129.787 504.716 128.628 499.624 128.628 492.936C128.628 486.172 129.787 481.061 132.105 477.603C134.461 474.107 137.9 472.359 142.422 472.359C146.982 472.359 150.421 474.088 152.739 477.546C155.057 481.004 156.216 486.115 156.216 492.879C156.216 499.567 155.038 504.678 152.682 508.212C150.326 511.708 146.906 513.456 142.422 513.456ZM142.422 510.321C145.88 510.321 148.445 508.896 150.117 506.046C151.789 503.196 152.625 498.807 152.625 492.879C152.625 486.875 151.789 482.486 150.117 479.712C148.483 476.9 145.918 475.494 142.422 475.494C138.964 475.494 136.399 476.9 134.727 479.712C133.055 482.524 132.219 486.913 132.219 492.879C132.219 498.807 133.055 503.196 134.727 506.046C136.399 508.896 138.964 510.321 142.422 510.321ZM166.739 513C166.055 513 165.542 512.848 165.2 512.544C164.896 512.202 164.744 511.765 164.744 511.233C164.744 510.625 165.029 510.036 165.599 509.466L178.937 495.045C180.951 492.841 182.414 490.808 183.326 488.946C184.276 487.046 184.751 485.108 184.751 483.132C184.751 480.662 184.01 478.781 182.528 477.489C181.046 476.197 178.88 475.551 176.03 475.551C172.382 475.551 169.076 476.786 166.112 479.256C165.466 479.75 164.915 479.864 164.459 479.598C164.003 479.294 163.737 478.838 163.661 478.23C163.585 477.622 163.813 477.109 164.345 476.691C165.789 475.399 167.556 474.354 169.646 473.556C171.774 472.758 173.959 472.359 176.201 472.359C180.077 472.359 183.06 473.29 185.15 475.152C187.278 476.976 188.342 479.579 188.342 482.961C188.342 485.355 187.753 487.73 186.575 490.086C185.397 492.404 183.592 494.855 181.16 497.439L169.361 509.922H188.684C189.786 509.922 190.337 510.416 190.337 511.404C190.337 512.468 189.786 513 188.684 513H166.739ZM210.778 513.456C206.256 513.456 202.817 511.708 200.461 508.212C198.143 504.716 196.984 499.624 196.984 492.936C196.984 486.172 198.143 481.061 200.461 477.603C202.817 474.107 206.256 472.359 210.778 472.359C215.338 472.359 218.777 474.088 221.095 477.546C223.413 481.004 224.572 486.115 224.572 492.879C224.572 499.567 223.394 504.678 221.038 508.212C218.682 511.708 215.262 513.456 210.778 513.456ZM210.778 510.321C214.236 510.321 216.801 508.896 218.473 506.046C220.145 503.196 220.981 498.807 220.981 492.879C220.981 486.875 220.145 482.486 218.473 479.712C216.839 476.9 214.274 475.494 210.778 475.494C207.32 475.494 204.755 476.9 203.083 479.712C201.411 482.524 200.575 486.913 200.575 492.879C200.575 498.807 201.411 503.196 203.083 506.046C204.755 508.896 207.32 510.321 210.778 510.321Z" fill="#ECDD7B"/>
<circle cx="27" cy="83" r="26" stroke="#ECDD7B" stroke-width="2"/>
<circle cx="28" cy="494" r="26" stroke="#ECDD7B" stroke-width="2"/>
<circle cx="27" cy="905" r="26" stroke="#ECDD7B" stroke-width="2"/>
</svg>
