<svg width="239" height="2198" viewBox="0 0 239 2198" fill="none" xmlns="http://www.w3.org/2000/svg">
<g clip-path="url(#clip0_945_8)">
<rect x="35" y="869" width="776" height="3.00002" rx="1.50001" transform="rotate(-90 35 869)" fill="#ECDD7B"/>
<path d="M108.805 78C108.121 78 107.608 77.848 107.266 77.544C106.962 77.202 106.81 76.765 106.81 76.233C106.81 75.929 106.886 75.625 107.038 75.321C107.19 75.017 107.399 74.732 107.665 74.466L121.003 60.045C123.055 57.841 124.537 55.808 125.449 53.946C126.361 52.046 126.817 50.108 126.817 48.132C126.817 45.662 126.076 43.781 124.594 42.489C123.112 41.197 120.946 40.551 118.096 40.551C116.196 40.551 114.429 40.874 112.795 41.52C111.199 42.128 109.66 43.04 108.178 44.256C107.798 44.56 107.437 44.712 107.095 44.712C106.791 44.712 106.525 44.617 106.297 44.427C106.069 44.199 105.898 43.933 105.784 43.629C105.708 43.287 105.708 42.945 105.784 42.603C105.898 42.261 106.107 41.957 106.411 41.691C107.893 40.399 109.679 39.354 111.769 38.556C113.859 37.758 116.025 37.359 118.267 37.359C120.851 37.359 123.036 37.777 124.822 38.613C126.646 39.411 128.033 40.608 128.983 42.204C129.933 43.8 130.408 45.719 130.408 47.961C130.408 49.557 130.142 51.134 129.61 52.692C129.078 54.25 128.28 55.827 127.216 57.423C126.19 59.019 124.86 60.691 123.226 62.439L110.401 76.005V74.922H130.75C131.282 74.922 131.681 75.055 131.947 75.321C132.251 75.549 132.403 75.91 132.403 76.404C132.403 76.936 132.251 77.335 131.947 77.601C131.681 77.867 131.282 78 130.75 78H108.805ZM152.844 78.456C148.322 78.456 144.883 76.708 142.527 73.212C140.209 69.678 139.05 64.586 139.05 57.936C139.05 53.414 139.563 49.633 140.589 46.593C141.653 43.553 143.211 41.254 145.263 39.696C147.315 38.138 149.842 37.359 152.844 37.359C157.404 37.359 160.843 39.088 163.161 42.546C165.479 46.004 166.638 51.115 166.638 57.879C166.638 62.325 166.106 66.087 165.042 69.165C164.016 72.243 162.477 74.561 160.425 76.119C158.373 77.677 155.846 78.456 152.844 78.456ZM152.844 75.321C156.302 75.321 158.867 73.896 160.539 71.046C162.211 68.196 163.047 63.807 163.047 57.879C163.047 51.875 162.211 47.486 160.539 44.712C158.905 41.9 156.34 40.494 152.844 40.494C149.386 40.494 146.821 41.9 145.149 44.712C143.477 47.524 142.641 51.913 142.641 57.879C142.641 63.807 143.477 68.196 145.149 71.046C146.821 73.896 149.386 75.321 152.844 75.321ZM177.161 78C176.477 78 175.964 77.848 175.622 77.544C175.318 77.202 175.166 76.765 175.166 76.233C175.166 75.929 175.242 75.625 175.394 75.321C175.546 75.017 175.755 74.732 176.021 74.466L189.359 60.045C191.411 57.841 192.893 55.808 193.805 53.946C194.717 52.046 195.173 50.108 195.173 48.132C195.173 45.662 194.432 43.781 192.95 42.489C191.468 41.197 189.302 40.551 186.452 40.551C184.552 40.551 182.785 40.874 181.151 41.52C179.555 42.128 178.016 43.04 176.534 44.256C176.154 44.56 175.793 44.712 175.451 44.712C175.147 44.712 174.881 44.617 174.653 44.427C174.425 44.199 174.254 43.933 174.14 43.629C174.064 43.287 174.064 42.945 174.14 42.603C174.254 42.261 174.463 41.957 174.767 41.691C176.249 40.399 178.035 39.354 180.125 38.556C182.215 37.758 184.381 37.359 186.623 37.359C189.207 37.359 191.392 37.777 193.178 38.613C195.002 39.411 196.389 40.608 197.339 42.204C198.289 43.8 198.764 45.719 198.764 47.961C198.764 49.557 198.498 51.134 197.966 52.692C197.434 54.25 196.636 55.827 195.572 57.423C194.546 59.019 193.216 60.691 191.582 62.439L178.757 76.005V74.922H199.106C199.638 74.922 200.037 75.055 200.303 75.321C200.607 75.549 200.759 75.91 200.759 76.404C200.759 76.936 200.607 77.335 200.303 77.601C200.037 77.867 199.638 78 199.106 78H177.161ZM211.339 78C210.655 78 210.142 77.848 209.8 77.544C209.496 77.202 209.344 76.765 209.344 76.233C209.344 75.929 209.42 75.625 209.572 75.321C209.724 75.017 209.933 74.732 210.199 74.466L223.537 60.045C225.589 57.841 227.071 55.808 227.983 53.946C228.895 52.046 229.351 50.108 229.351 48.132C229.351 45.662 228.61 43.781 227.128 42.489C225.646 41.197 223.48 40.551 220.63 40.551C218.73 40.551 216.963 40.874 215.329 41.52C213.733 42.128 212.194 43.04 210.712 44.256C210.332 44.56 209.971 44.712 209.629 44.712C209.325 44.712 209.059 44.617 208.831 44.427C208.603 44.199 208.432 43.933 208.318 43.629C208.242 43.287 208.242 42.945 208.318 42.603C208.432 42.261 208.641 41.957 208.945 41.691C210.427 40.399 212.213 39.354 214.303 38.556C216.393 37.758 218.559 37.359 220.801 37.359C223.385 37.359 225.57 37.777 227.356 38.613C229.18 39.411 230.567 40.608 231.517 42.204C232.467 43.8 232.942 45.719 232.942 47.961C232.942 49.557 232.676 51.134 232.144 52.692C231.612 54.25 230.814 55.827 229.75 57.423C228.724 59.019 227.394 60.691 225.76 62.439L212.935 76.005V74.922H233.284C233.816 74.922 234.215 75.055 234.481 75.321C234.785 75.549 234.937 75.91 234.937 76.404C234.937 76.936 234.785 77.335 234.481 77.601C234.215 77.867 233.816 78 233.284 78H211.339Z" fill="#ECDD7B"/>
<circle cx="36.3038" cy="59.3292" r="34.8038" stroke="#ECDD7B" stroke-width="3"/>
<path d="M108.805 922C108.121 922 107.608 921.848 107.266 921.544C106.962 921.202 106.81 920.765 106.81 920.233C106.81 919.929 106.886 919.625 107.038 919.321C107.19 919.017 107.399 918.732 107.665 918.466L121.003 904.045C123.055 901.841 124.537 899.808 125.449 897.946C126.361 896.046 126.817 894.108 126.817 892.132C126.817 889.662 126.076 887.781 124.594 886.489C123.112 885.197 120.946 884.551 118.096 884.551C116.196 884.551 114.429 884.874 112.795 885.52C111.199 886.128 109.66 887.04 108.178 888.256C107.798 888.56 107.437 888.712 107.095 888.712C106.791 888.712 106.525 888.617 106.297 888.427C106.069 888.199 105.898 887.933 105.784 887.629C105.708 887.287 105.708 886.945 105.784 886.603C105.898 886.261 106.107 885.957 106.411 885.691C107.893 884.399 109.679 883.354 111.769 882.556C113.859 881.758 116.025 881.359 118.267 881.359C120.851 881.359 123.036 881.777 124.822 882.613C126.646 883.411 128.033 884.608 128.983 886.204C129.933 887.8 130.408 889.719 130.408 891.961C130.408 893.557 130.142 895.134 129.61 896.692C129.078 898.25 128.28 899.827 127.216 901.423C126.19 903.019 124.86 904.691 123.226 906.439L110.401 920.005V918.922H130.75C131.282 918.922 131.681 919.055 131.947 919.321C132.251 919.549 132.403 919.91 132.403 920.404C132.403 920.936 132.251 921.335 131.947 921.601C131.681 921.867 131.282 922 130.75 922H108.805ZM152.844 922.456C148.322 922.456 144.883 920.708 142.527 917.212C140.209 913.678 139.05 908.586 139.05 901.936C139.05 897.414 139.563 893.633 140.589 890.593C141.653 887.553 143.211 885.254 145.263 883.696C147.315 882.138 149.842 881.359 152.844 881.359C157.404 881.359 160.843 883.088 163.161 886.546C165.479 890.004 166.638 895.115 166.638 901.879C166.638 906.325 166.106 910.087 165.042 913.165C164.016 916.243 162.477 918.561 160.425 920.119C158.373 921.677 155.846 922.456 152.844 922.456ZM152.844 919.321C156.302 919.321 158.867 917.896 160.539 915.046C162.211 912.196 163.047 907.807 163.047 901.879C163.047 895.875 162.211 891.486 160.539 888.712C158.905 885.9 156.34 884.494 152.844 884.494C149.386 884.494 146.821 885.9 145.149 888.712C143.477 891.524 142.641 895.913 142.641 901.879C142.641 907.807 143.477 912.196 145.149 915.046C146.821 917.896 149.386 919.321 152.844 919.321ZM177.161 922C176.477 922 175.964 921.848 175.622 921.544C175.318 921.202 175.166 920.765 175.166 920.233C175.166 919.929 175.242 919.625 175.394 919.321C175.546 919.017 175.755 918.732 176.021 918.466L189.359 904.045C191.411 901.841 192.893 899.808 193.805 897.946C194.717 896.046 195.173 894.108 195.173 892.132C195.173 889.662 194.432 887.781 192.95 886.489C191.468 885.197 189.302 884.551 186.452 884.551C184.552 884.551 182.785 884.874 181.151 885.52C179.555 886.128 178.016 887.04 176.534 888.256C176.154 888.56 175.793 888.712 175.451 888.712C175.147 888.712 174.881 888.617 174.653 888.427C174.425 888.199 174.254 887.933 174.14 887.629C174.064 887.287 174.064 886.945 174.14 886.603C174.254 886.261 174.463 885.957 174.767 885.691C176.249 884.399 178.035 883.354 180.125 882.556C182.215 881.758 184.381 881.359 186.623 881.359C189.207 881.359 191.392 881.777 193.178 882.613C195.002 883.411 196.389 884.608 197.339 886.204C198.289 887.8 198.764 889.719 198.764 891.961C198.764 893.557 198.498 895.134 197.966 896.692C197.434 898.25 196.636 899.827 195.572 901.423C194.546 903.019 193.216 904.691 191.582 906.439L178.757 920.005V918.922H199.106C199.638 918.922 200.037 919.055 200.303 919.321C200.607 919.549 200.759 919.91 200.759 920.404C200.759 920.936 200.607 921.335 200.303 921.601C200.037 921.867 199.638 922 199.106 922H177.161ZM212.878 922C212.384 922 211.985 921.867 211.681 921.601C211.377 921.297 211.225 920.898 211.225 920.404C211.225 919.91 211.377 919.549 211.681 919.321C211.985 919.055 212.384 918.922 212.878 918.922H220.801V884.608H222.796L214.531 890.251C214.151 890.517 213.79 890.65 213.448 890.65C213.106 890.612 212.821 890.479 212.593 890.251C212.365 890.023 212.194 889.757 212.08 889.453C212.004 889.149 212.023 888.826 212.137 888.484C212.251 888.142 212.498 887.857 212.878 887.629L220.744 882.157C221.124 881.929 221.466 881.758 221.77 881.644C222.074 881.53 222.416 881.473 222.796 881.473C223.214 881.473 223.556 881.606 223.822 881.872C224.126 882.1 224.278 882.499 224.278 883.069V918.922H231.631C232.163 918.922 232.562 919.055 232.828 919.321C233.132 919.549 233.284 919.91 233.284 920.404C233.284 920.936 233.132 921.335 232.828 921.601C232.562 921.867 232.163 922 231.631 922H212.878Z" fill="#ECDD7B"/>
<rect x="35.2954" y="1863" width="925" height="3.02533" rx="1.51267" transform="rotate(-90 35.2954 1863)" fill="#ECDD7B"/>
<circle cx="36.3038" cy="903.329" r="34.8038" stroke="#ECDD7B" stroke-width="3"/>
<rect x="35" y="2133" width="201" height="3.00001" rx="1.5" transform="rotate(-90 35 2133)" fill="#ECDD7B"/>
<path d="M108.805 1916C108.121 1916 107.608 1915.85 107.266 1915.54C106.962 1915.2 106.81 1914.76 106.81 1914.23C106.81 1913.93 106.886 1913.62 107.038 1913.32C107.19 1913.02 107.399 1912.73 107.665 1912.47L121.003 1898.04C123.055 1895.84 124.537 1893.81 125.449 1891.95C126.361 1890.05 126.817 1888.11 126.817 1886.13C126.817 1883.66 126.076 1881.78 124.594 1880.49C123.112 1879.2 120.946 1878.55 118.096 1878.55C116.196 1878.55 114.429 1878.87 112.795 1879.52C111.199 1880.13 109.66 1881.04 108.178 1882.26C107.798 1882.56 107.437 1882.71 107.095 1882.71C106.791 1882.71 106.525 1882.62 106.297 1882.43C106.069 1882.2 105.898 1881.93 105.784 1881.63C105.708 1881.29 105.708 1880.94 105.784 1880.6C105.898 1880.26 106.107 1879.96 106.411 1879.69C107.893 1878.4 109.679 1877.35 111.769 1876.56C113.859 1875.76 116.025 1875.36 118.267 1875.36C120.851 1875.36 123.036 1875.78 124.822 1876.61C126.646 1877.41 128.033 1878.61 128.983 1880.2C129.933 1881.8 130.408 1883.72 130.408 1885.96C130.408 1887.56 130.142 1889.13 129.61 1890.69C129.078 1892.25 128.28 1893.83 127.216 1895.42C126.19 1897.02 124.86 1898.69 123.226 1900.44L110.401 1914V1912.92H130.75C131.282 1912.92 131.681 1913.05 131.947 1913.32C132.251 1913.55 132.403 1913.91 132.403 1914.4C132.403 1914.94 132.251 1915.33 131.947 1915.6C131.681 1915.87 131.282 1916 130.75 1916H108.805ZM152.844 1916.46C148.322 1916.46 144.883 1914.71 142.527 1911.21C140.209 1907.68 139.05 1902.59 139.05 1895.94C139.05 1891.41 139.563 1887.63 140.589 1884.59C141.653 1881.55 143.211 1879.25 145.263 1877.7C147.315 1876.14 149.842 1875.36 152.844 1875.36C157.404 1875.36 160.843 1877.09 163.161 1880.55C165.479 1884 166.638 1889.11 166.638 1895.88C166.638 1900.32 166.106 1904.09 165.042 1907.16C164.016 1910.24 162.477 1912.56 160.425 1914.12C158.373 1915.68 155.846 1916.46 152.844 1916.46ZM152.844 1913.32C156.302 1913.32 158.867 1911.9 160.539 1909.05C162.211 1906.2 163.047 1901.81 163.047 1895.88C163.047 1889.87 162.211 1885.49 160.539 1882.71C158.905 1879.9 156.34 1878.49 152.844 1878.49C149.386 1878.49 146.821 1879.9 145.149 1882.71C143.477 1885.52 142.641 1889.91 142.641 1895.88C142.641 1901.81 143.477 1906.2 145.149 1909.05C146.821 1911.9 149.386 1913.32 152.844 1913.32ZM177.161 1916C176.477 1916 175.964 1915.85 175.622 1915.54C175.318 1915.2 175.166 1914.76 175.166 1914.23C175.166 1913.93 175.242 1913.62 175.394 1913.32C175.546 1913.02 175.755 1912.73 176.021 1912.47L189.359 1898.04C191.411 1895.84 192.893 1893.81 193.805 1891.95C194.717 1890.05 195.173 1888.11 195.173 1886.13C195.173 1883.66 194.432 1881.78 192.95 1880.49C191.468 1879.2 189.302 1878.55 186.452 1878.55C184.552 1878.55 182.785 1878.87 181.151 1879.52C179.555 1880.13 178.016 1881.04 176.534 1882.26C176.154 1882.56 175.793 1882.71 175.451 1882.71C175.147 1882.71 174.881 1882.62 174.653 1882.43C174.425 1882.2 174.254 1881.93 174.14 1881.63C174.064 1881.29 174.064 1880.94 174.14 1880.6C174.254 1880.26 174.463 1879.96 174.767 1879.69C176.249 1878.4 178.035 1877.35 180.125 1876.56C182.215 1875.76 184.381 1875.36 186.623 1875.36C189.207 1875.36 191.392 1875.78 193.178 1876.61C195.002 1877.41 196.389 1878.61 197.339 1880.2C198.289 1881.8 198.764 1883.72 198.764 1885.96C198.764 1887.56 198.498 1889.13 197.966 1890.69C197.434 1892.25 196.636 1893.83 195.572 1895.42C194.546 1897.02 193.216 1898.69 191.582 1900.44L178.757 1914V1912.92H199.106C199.638 1912.92 200.037 1913.05 200.303 1913.32C200.607 1913.55 200.759 1913.91 200.759 1914.4C200.759 1914.94 200.607 1915.33 200.303 1915.6C200.037 1915.87 199.638 1916 199.106 1916H177.161ZM221.2 1916.46C216.678 1916.46 213.239 1914.71 210.883 1911.21C208.565 1907.68 207.406 1902.59 207.406 1895.94C207.406 1891.41 207.919 1887.63 208.945 1884.59C210.009 1881.55 211.567 1879.25 213.619 1877.7C215.671 1876.14 218.198 1875.36 221.2 1875.36C225.76 1875.36 229.199 1877.09 231.517 1880.55C233.835 1884 234.994 1889.11 234.994 1895.88C234.994 1900.32 234.462 1904.09 233.398 1907.16C232.372 1910.24 230.833 1912.56 228.781 1914.12C226.729 1915.68 224.202 1916.46 221.2 1916.46ZM221.2 1913.32C224.658 1913.32 227.223 1911.9 228.895 1909.05C230.567 1906.2 231.403 1901.81 231.403 1895.88C231.403 1889.87 230.567 1885.49 228.895 1882.71C227.261 1879.9 224.696 1878.49 221.2 1878.49C217.742 1878.49 215.177 1879.9 213.505 1882.71C211.833 1885.52 210.997 1889.91 210.997 1895.88C210.997 1901.81 211.833 1906.2 213.505 1909.05C215.177 1911.9 217.742 1913.32 221.2 1913.32Z" fill="#ECDD7B"/>
<circle cx="36.3038" cy="1897.33" r="34.8038" stroke="#ECDD7B" stroke-width="3"/>
<rect x="35" y="2165.19" width="22.1857" height="3.02532" rx="1.51266" transform="rotate(-90 35 2165.19)" fill="#ECDD7B"/>
<rect x="35" y="2198.19" width="22.1857" height="3.02532" rx="1.51266" transform="rotate(-90 35 2198.19)" fill="#ECDD7B"/>
</g>
<defs>
<clipPath id="clip0_945_8">
<rect width="239" height="2198" fill="white"/>
</clipPath>
</defs>
</svg>
