<svg width="237" height="1742" viewBox="0 0 237 1742" fill="none" xmlns="http://www.w3.org/2000/svg">
<path d="M107.384 58C106.7 58 106.187 57.848 105.845 57.544C105.541 57.202 105.389 56.765 105.389 56.233C105.389 55.625 105.674 55.036 106.244 54.466L119.582 40.045C121.596 37.841 123.059 35.808 123.971 33.946C124.921 32.046 125.396 30.108 125.396 28.132C125.396 25.662 124.655 23.781 123.173 22.489C121.691 21.197 119.525 20.551 116.675 20.551C113.027 20.551 109.721 21.786 106.757 24.256C106.111 24.75 105.56 24.864 105.104 24.598C104.648 24.294 104.382 23.838 104.306 23.23C104.23 22.622 104.458 22.109 104.99 21.691C106.434 20.399 108.201 19.354 110.291 18.556C112.419 17.758 114.604 17.359 116.846 17.359C120.722 17.359 123.705 18.29 125.795 20.152C127.923 21.976 128.987 24.579 128.987 27.961C128.987 30.355 128.398 32.73 127.22 35.086C126.042 37.404 124.237 39.855 121.805 42.439L110.006 54.922H129.329C130.431 54.922 130.982 55.416 130.982 56.404C130.982 57.468 130.431 58 129.329 58H107.384ZM151.422 58.456C146.9 58.456 143.461 56.708 141.105 53.212C138.787 49.716 137.628 44.624 137.628 37.936C137.628 31.172 138.787 26.061 141.105 22.603C143.461 19.107 146.9 17.359 151.422 17.359C155.982 17.359 159.421 19.088 161.739 22.546C164.057 26.004 165.216 31.115 165.216 37.879C165.216 44.567 164.038 49.678 161.682 53.212C159.326 56.708 155.906 58.456 151.422 58.456ZM151.422 55.321C154.88 55.321 157.445 53.896 159.117 51.046C160.789 48.196 161.625 43.807 161.625 37.879C161.625 31.875 160.789 27.486 159.117 24.712C157.483 21.9 154.918 20.494 151.422 20.494C147.964 20.494 145.399 21.9 143.727 24.712C142.055 27.524 141.219 31.913 141.219 37.879C141.219 43.807 142.055 48.196 143.727 51.046C145.399 53.896 147.964 55.321 151.422 55.321ZM175.739 58C175.055 58 174.542 57.848 174.2 57.544C173.896 57.202 173.744 56.765 173.744 56.233C173.744 55.625 174.029 55.036 174.599 54.466L187.937 40.045C189.951 37.841 191.414 35.808 192.326 33.946C193.276 32.046 193.751 30.108 193.751 28.132C193.751 25.662 193.01 23.781 191.528 22.489C190.046 21.197 187.88 20.551 185.03 20.551C181.382 20.551 178.076 21.786 175.112 24.256C174.466 24.75 173.915 24.864 173.459 24.598C173.003 24.294 172.737 23.838 172.661 23.23C172.585 22.622 172.813 22.109 173.345 21.691C174.789 20.399 176.556 19.354 178.646 18.556C180.774 17.758 182.959 17.359 185.201 17.359C189.077 17.359 192.06 18.29 194.15 20.152C196.278 21.976 197.342 24.579 197.342 27.961C197.342 30.355 196.753 32.73 195.575 35.086C194.397 37.404 192.592 39.855 190.16 42.439L178.361 54.922H197.684C198.786 54.922 199.337 55.416 199.337 56.404C199.337 57.468 198.786 58 197.684 58H175.739ZM211.456 58C210.354 58 209.803 57.468 209.803 56.404C209.803 55.416 210.354 54.922 211.456 54.922H219.379V21.976L213.109 26.251C212.501 26.669 211.95 26.745 211.456 26.479C210.962 26.175 210.677 25.738 210.601 25.168C210.525 24.56 210.81 24.047 211.456 23.629L219.322 18.157C219.702 17.929 220.044 17.758 220.348 17.644C220.69 17.53 221.032 17.473 221.374 17.473C221.792 17.473 222.134 17.606 222.4 17.872C222.704 18.138 222.856 18.537 222.856 19.069V54.922H230.209C231.311 54.922 231.862 55.416 231.862 56.404C231.862 57.468 231.311 58 230.209 58H211.456ZM107.384 145C106.7 145 106.187 144.848 105.845 144.544C105.541 144.202 105.389 143.765 105.389 143.233C105.389 142.625 105.674 142.036 106.244 141.466L119.582 127.045C121.596 124.841 123.059 122.808 123.971 120.946C124.921 119.046 125.396 117.108 125.396 115.132C125.396 112.662 124.655 110.781 123.173 109.489C121.691 108.197 119.525 107.551 116.675 107.551C113.027 107.551 109.721 108.786 106.757 111.256C106.111 111.75 105.56 111.864 105.104 111.598C104.648 111.294 104.382 110.838 104.306 110.23C104.23 109.622 104.458 109.109 104.99 108.691C106.434 107.399 108.201 106.354 110.291 105.556C112.419 104.758 114.604 104.359 116.846 104.359C120.722 104.359 123.705 105.29 125.795 107.152C127.923 108.976 128.987 111.579 128.987 114.961C128.987 117.355 128.398 119.73 127.22 122.086C126.042 124.404 124.237 126.855 121.805 129.439L110.006 141.922H129.329C130.431 141.922 130.982 142.416 130.982 143.404C130.982 144.468 130.431 145 129.329 145H107.384ZM151.422 145.456C146.9 145.456 143.461 143.708 141.105 140.212C138.787 136.716 137.628 131.624 137.628 124.936C137.628 118.172 138.787 113.061 141.105 109.603C143.461 106.107 146.9 104.359 151.422 104.359C155.982 104.359 159.421 106.088 161.739 109.546C164.057 113.004 165.216 118.115 165.216 124.879C165.216 131.567 164.038 136.678 161.682 140.212C159.326 143.708 155.906 145.456 151.422 145.456ZM151.422 142.321C154.88 142.321 157.445 140.896 159.117 138.046C160.789 135.196 161.625 130.807 161.625 124.879C161.625 118.875 160.789 114.486 159.117 111.712C157.483 108.9 154.918 107.494 151.422 107.494C147.964 107.494 145.399 108.9 143.727 111.712C142.055 114.524 141.219 118.913 141.219 124.879C141.219 130.807 142.055 135.196 143.727 138.046C145.399 140.896 147.964 142.321 151.422 142.321ZM175.739 145C175.055 145 174.542 144.848 174.2 144.544C173.896 144.202 173.744 143.765 173.744 143.233C173.744 142.625 174.029 142.036 174.599 141.466L187.937 127.045C189.951 124.841 191.414 122.808 192.326 120.946C193.276 119.046 193.751 117.108 193.751 115.132C193.751 112.662 193.01 110.781 191.528 109.489C190.046 108.197 187.88 107.551 185.03 107.551C181.382 107.551 178.076 108.786 175.112 111.256C174.466 111.75 173.915 111.864 173.459 111.598C173.003 111.294 172.737 110.838 172.661 110.23C172.585 109.622 172.813 109.109 173.345 108.691C174.789 107.399 176.556 106.354 178.646 105.556C180.774 104.758 182.959 104.359 185.201 104.359C189.077 104.359 192.06 105.29 194.15 107.152C196.278 108.976 197.342 111.579 197.342 114.961C197.342 117.355 196.753 119.73 195.575 122.086C194.397 124.404 192.592 126.855 190.16 129.439L178.361 141.922H197.684C198.786 141.922 199.337 142.416 199.337 143.404C199.337 144.468 198.786 145 197.684 145H175.739ZM219.778 145.456C215.256 145.456 211.817 143.708 209.461 140.212C207.143 136.716 205.984 131.624 205.984 124.936C205.984 118.172 207.143 113.061 209.461 109.603C211.817 106.107 215.256 104.359 219.778 104.359C224.338 104.359 227.777 106.088 230.095 109.546C232.413 113.004 233.572 118.115 233.572 124.879C233.572 131.567 232.394 136.678 230.038 140.212C227.682 143.708 224.262 145.456 219.778 145.456ZM219.778 142.321C223.236 142.321 225.801 140.896 227.473 138.046C229.145 135.196 229.981 130.807 229.981 124.879C229.981 118.875 229.145 114.486 227.473 111.712C225.839 108.9 223.274 107.494 219.778 107.494C216.32 107.494 213.755 108.9 212.083 111.712C210.411 114.524 209.575 118.913 209.575 124.879C209.575 130.807 210.411 135.196 212.083 138.046C213.755 140.896 216.32 142.321 219.778 142.321Z" fill="#ECDD7B"/>
<rect x="35" y="1674" width="191" height="3.00001" rx="1.5" transform="rotate(-90 35 1674)" fill="#ECDD7B"/>
<rect x="35" y="1708" width="22" height="3" rx="1.5" transform="rotate(-90 35 1708)" fill="#ECDD7B"/>
<rect x="35" y="1742" width="22" height="3" rx="1.5" transform="rotate(-90 35 1742)" fill="#ECDD7B"/>
<rect x="155" y="82" width="27" height="2" rx="1" fill="#ECDD7B"/>
<rect x="35" y="505" width="387" height="3.00002" rx="1.50001" transform="rotate(-90 35 505)" fill="#ECDD7B"/>
<rect x="35" y="961" width="387" height="3.00002" rx="1.50001" transform="rotate(-90 35 961)" fill="#ECDD7B"/>
<rect x="35" y="1417" width="387" height="3.00002" rx="1.50001" transform="rotate(-90 35 1417)" fill="#ECDD7B"/>
<path d="M107.384 558C106.7 558 106.187 557.848 105.845 557.544C105.541 557.202 105.389 556.765 105.389 556.233C105.389 555.625 105.674 555.036 106.244 554.466L119.582 540.045C121.596 537.841 123.059 535.808 123.971 533.946C124.921 532.046 125.396 530.108 125.396 528.132C125.396 525.662 124.655 523.781 123.173 522.489C121.691 521.197 119.525 520.551 116.675 520.551C113.027 520.551 109.721 521.786 106.757 524.256C106.111 524.75 105.56 524.864 105.104 524.598C104.648 524.294 104.382 523.838 104.306 523.23C104.23 522.622 104.458 522.109 104.99 521.691C106.434 520.399 108.201 519.354 110.291 518.556C112.419 517.758 114.604 517.359 116.846 517.359C120.722 517.359 123.705 518.29 125.795 520.152C127.923 521.976 128.987 524.579 128.987 527.961C128.987 530.355 128.398 532.73 127.22 535.086C126.042 537.404 124.237 539.855 121.805 542.439L110.006 554.922H129.329C130.431 554.922 130.982 555.416 130.982 556.404C130.982 557.468 130.431 558 129.329 558H107.384ZM151.422 558.456C146.9 558.456 143.461 556.708 141.105 553.212C138.787 549.716 137.628 544.624 137.628 537.936C137.628 531.172 138.787 526.061 141.105 522.603C143.461 519.107 146.9 517.359 151.422 517.359C155.982 517.359 159.421 519.088 161.739 522.546C164.057 526.004 165.216 531.115 165.216 537.879C165.216 544.567 164.038 549.678 161.682 553.212C159.326 556.708 155.906 558.456 151.422 558.456ZM151.422 555.321C154.88 555.321 157.445 553.896 159.117 551.046C160.789 548.196 161.625 543.807 161.625 537.879C161.625 531.875 160.789 527.486 159.117 524.712C157.483 521.9 154.918 520.494 151.422 520.494C147.964 520.494 145.399 521.9 143.727 524.712C142.055 527.524 141.219 531.913 141.219 537.879C141.219 543.807 142.055 548.196 143.727 551.046C145.399 553.896 147.964 555.321 151.422 555.321ZM175.739 558C175.055 558 174.542 557.848 174.2 557.544C173.896 557.202 173.744 556.765 173.744 556.233C173.744 555.625 174.029 555.036 174.599 554.466L187.937 540.045C189.951 537.841 191.414 535.808 192.326 533.946C193.276 532.046 193.751 530.108 193.751 528.132C193.751 525.662 193.01 523.781 191.528 522.489C190.046 521.197 187.88 520.551 185.03 520.551C181.382 520.551 178.076 521.786 175.112 524.256C174.466 524.75 173.915 524.864 173.459 524.598C173.003 524.294 172.737 523.838 172.661 523.23C172.585 522.622 172.813 522.109 173.345 521.691C174.789 520.399 176.556 519.354 178.646 518.556C180.774 517.758 182.959 517.359 185.201 517.359C189.077 517.359 192.06 518.29 194.15 520.152C196.278 521.976 197.342 524.579 197.342 527.961C197.342 530.355 196.753 532.73 195.575 535.086C194.397 537.404 192.592 539.855 190.16 542.439L178.361 554.922H197.684C198.786 554.922 199.337 555.416 199.337 556.404C199.337 557.468 198.786 558 197.684 558H175.739ZM219.778 558.456C215.256 558.456 211.817 556.708 209.461 553.212C207.143 549.716 205.984 544.624 205.984 537.936C205.984 531.172 207.143 526.061 209.461 522.603C211.817 519.107 215.256 517.359 219.778 517.359C224.338 517.359 227.777 519.088 230.095 522.546C232.413 526.004 233.572 531.115 233.572 537.879C233.572 544.567 232.394 549.678 230.038 553.212C227.682 556.708 224.262 558.456 219.778 558.456ZM219.778 555.321C223.236 555.321 225.801 553.896 227.473 551.046C229.145 548.196 229.981 543.807 229.981 537.879C229.981 531.875 229.145 527.486 227.473 524.712C225.839 521.9 223.274 520.494 219.778 520.494C216.32 520.494 213.755 521.9 212.083 524.712C210.411 527.524 209.575 531.913 209.575 537.879C209.575 543.807 210.411 548.196 212.083 551.046C213.755 553.896 216.32 555.321 219.778 555.321Z" fill="#ECDD7B"/>
<path d="M107.384 1014C106.7 1014 106.187 1013.85 105.845 1013.54C105.541 1013.2 105.389 1012.76 105.389 1012.23C105.389 1011.62 105.674 1011.04 106.244 1010.47L119.582 996.045C121.596 993.841 123.059 991.808 123.971 989.946C124.921 988.046 125.396 986.108 125.396 984.132C125.396 981.662 124.655 979.781 123.173 978.489C121.691 977.197 119.525 976.551 116.675 976.551C113.027 976.551 109.721 977.786 106.757 980.256C106.111 980.75 105.56 980.864 105.104 980.598C104.648 980.294 104.382 979.838 104.306 979.23C104.23 978.622 104.458 978.109 104.99 977.691C106.434 976.399 108.201 975.354 110.291 974.556C112.419 973.758 114.604 973.359 116.846 973.359C120.722 973.359 123.705 974.29 125.795 976.152C127.923 977.976 128.987 980.579 128.987 983.961C128.987 986.355 128.398 988.73 127.22 991.086C126.042 993.404 124.237 995.855 121.805 998.439L110.006 1010.92H129.329C130.431 1010.92 130.982 1011.42 130.982 1012.4C130.982 1013.47 130.431 1014 129.329 1014H107.384ZM151.422 1014.46C146.9 1014.46 143.461 1012.71 141.105 1009.21C138.787 1005.72 137.628 1000.62 137.628 993.936C137.628 987.172 138.787 982.061 141.105 978.603C143.461 975.107 146.9 973.359 151.422 973.359C155.982 973.359 159.421 975.088 161.739 978.546C164.057 982.004 165.216 987.115 165.216 993.879C165.216 1000.57 164.038 1005.68 161.682 1009.21C159.326 1012.71 155.906 1014.46 151.422 1014.46ZM151.422 1011.32C154.88 1011.32 157.445 1009.9 159.117 1007.05C160.789 1004.2 161.625 999.807 161.625 993.879C161.625 987.875 160.789 983.486 159.117 980.712C157.483 977.9 154.918 976.494 151.422 976.494C147.964 976.494 145.399 977.9 143.727 980.712C142.055 983.524 141.219 987.913 141.219 993.879C141.219 999.807 142.055 1004.2 143.727 1007.05C145.399 1009.9 147.964 1011.32 151.422 1011.32ZM177.278 1014C176.176 1014 175.625 1013.47 175.625 1012.4C175.625 1011.42 176.176 1010.92 177.278 1010.92H185.201V977.976L178.931 982.251C178.323 982.669 177.772 982.745 177.278 982.479C176.784 982.175 176.499 981.738 176.423 981.168C176.347 980.56 176.632 980.047 177.278 979.629L185.144 974.157C185.524 973.929 185.866 973.758 186.17 973.644C186.512 973.53 186.854 973.473 187.196 973.473C187.614 973.473 187.956 973.606 188.222 973.872C188.526 974.138 188.678 974.537 188.678 975.069V1010.92H196.031C197.133 1010.92 197.684 1011.42 197.684 1012.4C197.684 1013.47 197.133 1014 196.031 1014H177.278ZM217.156 1014.46C215.37 1014.46 213.527 1014.08 211.627 1013.32C209.727 1012.56 208.093 1011.47 206.725 1010.07C206.231 1009.65 206.022 1009.14 206.098 1008.53C206.212 1007.92 206.497 1007.48 206.953 1007.22C207.447 1006.95 207.998 1007.08 208.606 1007.62C209.898 1008.87 211.285 1009.8 212.767 1010.41C214.249 1010.98 215.731 1011.26 217.213 1011.26C221.127 1011.26 224.148 1009.78 226.276 1006.82C228.404 1003.82 229.468 999.37 229.468 993.48V990.117C228.746 992.815 227.359 994.943 225.307 996.501C223.293 998.021 220.899 998.781 218.125 998.781C215.731 998.781 213.603 998.249 211.741 997.185C209.917 996.083 208.473 994.582 207.409 992.682C206.383 990.782 205.87 988.616 205.87 986.184C205.87 983.676 206.402 981.472 207.466 979.572C208.568 977.634 210.05 976.114 211.912 975.012C213.812 973.91 215.978 973.359 218.41 973.359C223.084 973.359 226.675 975.069 229.183 978.489C231.691 981.871 232.945 986.64 232.945 992.796C232.945 999.788 231.558 1005.15 228.784 1008.87C226.01 1012.59 222.134 1014.46 217.156 1014.46ZM218.695 995.646C221.469 995.646 223.711 994.753 225.421 992.967C227.169 991.181 228.043 988.882 228.043 986.07C228.043 983.22 227.169 980.902 225.421 979.116C223.711 977.33 221.469 976.437 218.695 976.437C215.959 976.437 213.717 977.33 211.969 979.116C210.259 980.902 209.404 983.22 209.404 986.07C209.404 988.882 210.259 991.181 211.969 992.967C213.717 994.753 215.959 995.646 218.695 995.646Z" fill="#ECDD7B"/>
<path d="M107.384 1469C106.7 1469 106.187 1468.85 105.845 1468.54C105.541 1468.2 105.389 1467.76 105.389 1467.23C105.389 1466.62 105.674 1466.04 106.244 1465.47L119.582 1451.04C121.596 1448.84 123.059 1446.81 123.971 1444.95C124.921 1443.05 125.396 1441.11 125.396 1439.13C125.396 1436.66 124.655 1434.78 123.173 1433.49C121.691 1432.2 119.525 1431.55 116.675 1431.55C113.027 1431.55 109.721 1432.79 106.757 1435.26C106.111 1435.75 105.56 1435.86 105.104 1435.6C104.648 1435.29 104.382 1434.84 104.306 1434.23C104.23 1433.62 104.458 1433.11 104.99 1432.69C106.434 1431.4 108.201 1430.35 110.291 1429.56C112.419 1428.76 114.604 1428.36 116.846 1428.36C120.722 1428.36 123.705 1429.29 125.795 1431.15C127.923 1432.98 128.987 1435.58 128.987 1438.96C128.987 1441.35 128.398 1443.73 127.22 1446.09C126.042 1448.4 124.237 1450.85 121.805 1453.44L110.006 1465.92H129.329C130.431 1465.92 130.982 1466.42 130.982 1467.4C130.982 1468.47 130.431 1469 129.329 1469H107.384ZM151.422 1469.46C146.9 1469.46 143.461 1467.71 141.105 1464.21C138.787 1460.72 137.628 1455.62 137.628 1448.94C137.628 1442.17 138.787 1437.06 141.105 1433.6C143.461 1430.11 146.9 1428.36 151.422 1428.36C155.982 1428.36 159.421 1430.09 161.739 1433.55C164.057 1437 165.216 1442.11 165.216 1448.88C165.216 1455.57 164.038 1460.68 161.682 1464.21C159.326 1467.71 155.906 1469.46 151.422 1469.46ZM151.422 1466.32C154.88 1466.32 157.445 1464.9 159.117 1462.05C160.789 1459.2 161.625 1454.81 161.625 1448.88C161.625 1442.87 160.789 1438.49 159.117 1435.71C157.483 1432.9 154.918 1431.49 151.422 1431.49C147.964 1431.49 145.399 1432.9 143.727 1435.71C142.055 1438.52 141.219 1442.91 141.219 1448.88C141.219 1454.81 142.055 1459.2 143.727 1462.05C145.399 1464.9 147.964 1466.32 151.422 1466.32ZM177.278 1469C176.176 1469 175.625 1468.47 175.625 1467.4C175.625 1466.42 176.176 1465.92 177.278 1465.92H185.201V1432.98L178.931 1437.25C178.323 1437.67 177.772 1437.74 177.278 1437.48C176.784 1437.17 176.499 1436.74 176.423 1436.17C176.347 1435.56 176.632 1435.05 177.278 1434.63L185.144 1429.16C185.524 1428.93 185.866 1428.76 186.17 1428.64C186.512 1428.53 186.854 1428.47 187.196 1428.47C187.614 1428.47 187.956 1428.61 188.222 1428.87C188.526 1429.14 188.678 1429.54 188.678 1430.07V1465.92H196.031C197.133 1465.92 197.684 1466.42 197.684 1467.4C197.684 1468.47 197.133 1469 196.031 1469H177.278ZM219.778 1469.46C215.332 1469.46 211.874 1468.51 209.404 1466.61C206.934 1464.67 205.699 1461.95 205.699 1458.45C205.699 1455.91 206.402 1453.76 207.808 1452.01C209.214 1450.23 211.076 1449.05 213.394 1448.48C211.304 1447.76 209.651 1446.54 208.435 1444.83C207.257 1443.12 206.668 1441.16 206.668 1438.96C206.668 1435.62 207.846 1433.01 210.202 1431.15C212.596 1429.29 215.788 1428.36 219.778 1428.36C223.768 1428.36 226.941 1429.29 229.297 1431.15C231.691 1433.01 232.888 1435.62 232.888 1438.96C232.888 1441.16 232.28 1443.12 231.064 1444.83C229.886 1446.54 228.252 1447.76 226.162 1448.48C228.48 1449.09 230.342 1450.27 231.748 1452.01C233.154 1453.76 233.857 1455.91 233.857 1458.45C233.857 1461.95 232.622 1464.67 230.152 1466.61C227.682 1468.51 224.224 1469.46 219.778 1469.46ZM219.778 1447.11C222.78 1447.11 225.136 1446.41 226.846 1445C228.556 1443.6 229.411 1441.66 229.411 1439.19C229.411 1436.72 228.556 1434.8 226.846 1433.43C225.136 1432.06 222.78 1431.38 219.778 1431.38C216.776 1431.38 214.42 1432.06 212.71 1433.43C211 1434.8 210.145 1436.72 210.145 1439.19C210.145 1441.66 211 1443.6 212.71 1445C214.42 1446.41 216.776 1447.11 219.778 1447.11ZM219.778 1466.43C226.808 1466.43 230.323 1463.72 230.323 1458.28C230.323 1452.89 226.808 1450.19 219.778 1450.19C212.748 1450.19 209.233 1452.89 209.233 1458.28C209.233 1463.72 212.748 1466.43 219.778 1466.43Z" fill="#ECDD7B"/>
<circle cx="36" cy="83" r="34.5" stroke="#ECDD7B" stroke-width="3"/>
<circle cx="36" cy="539" r="34.5" stroke="#ECDD7B" stroke-width="3"/>
<circle cx="36" cy="995" r="34.5" stroke="#ECDD7B" stroke-width="3"/>
<circle cx="36" cy="1450" r="34.5" stroke="#ECDD7B" stroke-width="3"/>
</svg>
