<svg id="Capa_1" enable-background="new 0 0 512 512" viewBox="0 0 512 512" xmlns="http://www.w3.org/2000/svg"><g><path d="m238 15.039h76.719c13.389 0 24.281 10.845 24.281 24.176v106.824h-141.719c-17.767 0-32.808 11.828-37.644 28h-82.637c-4.143 0-7.5 3.357-7.5 7.5s3.357 7.5 7.5 7.5h81v13h-111c-4.143 0-7.5 3.357-7.5 7.5s3.357 7.5 7.5 7.5h111v13h-111c-4.143 0-7.5 3.357-7.5 7.5s3.357 7.5 7.5 7.5h111v14c0 4.143 3.357 7.5 7.5 7.5s7.5-3.357 7.5-7.5v-73.824c0-13.331 10.893-24.176 24.281-24.176h203.719c4.143 0 7.5-3.357 7.5-7.5s-3.357-7.5-7.5-7.5h-47v-106.824c0-21.602-17.621-39.176-39.281-39.176h-76.719c-4.143 0-7.5 3.357-7.5 7.5s3.357 7.5 7.5 7.5z"/><path d="m472.719 146.039h-36.719c-4.143 0-7.5 3.357-7.5 7.5s3.357 7.5 7.5 7.5h36.719c13.389 0 24.281 10.845 24.281 24.176v219.622c0 13.331-10.893 24.176-24.281 24.176h-25.425c-15.818 0-28.688 12.838-28.688 28.617v36.332c0 1.619-1.047 2.396-1.672 2.716-.635.325-1.9.727-3.246-.246l-85.855-61.984c-4.925-3.556-10.741-5.435-16.82-5.435h-113.732c-13.389 0-24.281-10.845-24.281-24.176v-110.798c0-4.143-3.357-7.5-7.5-7.5s-7.5 3.357-7.5 7.5v13.3l-59.688 43.092c-1.345.973-2.612.571-3.247.246-.625-.319-1.672-1.097-1.672-2.716v-36.331c0-15.779-12.869-28.617-28.688-28.617h-25.424c-13.388 0-24.281-10.845-24.281-24.176v-219.622c0-13.331 10.893-24.176 24.281-24.176h163.719c4.143 0 7.5-3.357 7.5-7.5s-3.357-7.5-7.5-7.5h-163.719c-21.66 0-39.281 17.574-39.281 39.176v219.622c0 21.602 17.621 39.176 39.281 39.176h25.425c7.547 0 13.688 6.108 13.688 13.617v36.332c0 6.808 3.771 12.966 9.841 16.07 4.834 2.412 12.411 3.088 18.858-1.438l50.907-36.754v78.997c0 21.602 17.621 39.176 39.281 39.176h113.731c2.907 0 5.687.897 8.04 2.597l85.855 61.984c4.882 3.203 11.454 4.937 18.857 1.438 6.07-3.104 9.841-9.263 9.841-16.07v-36.332c0-7.509 6.141-13.617 13.688-13.617h25.425c21.66 0 39.281-17.574 39.281-39.176v-219.622c.001-21.602-17.62-39.176-39.28-39.176z"/><path d="m371.85 206.292c-4.143 0-7.5 3.357-7.5 7.5s3.357 7.5 7.5 7.5h15.551c3.601 15.96 10.723 30.639 20.644 43.123-7.591 7.247-16.472 13.256-26.375 17.669l-10.333 4.604c-3.783 1.686-5.483 6.12-3.798 9.903 1.244 2.792 3.983 4.449 6.854 4.449 1.021 0 2.057-.209 3.049-.651l10.333-4.604c11.4-5.08 21.635-11.977 30.401-20.293 8.765 8.316 19 15.213 30.4 20.293l10.334 4.604c.992.442 2.028.651 3.049.651 2.871 0 5.61-1.658 6.854-4.449 1.686-3.784-.015-8.218-3.798-9.903l-10.334-4.604c-9.904-4.413-18.784-10.422-26.375-17.669 9.92-12.484 17.042-27.162 20.643-43.123h15.551c4.143 0 7.5-3.357 7.5-7.5s-3.357-7.5-7.5-7.5h-38.825v-12.753c0-4.143-3.357-7.5-7.5-7.5s-7.5 3.357-7.5 7.5v12.753zm46.325 46.693c-7.028-9.387-12.272-20.113-15.335-31.693h30.67c-3.063 11.58-8.307 22.306-15.335 31.693z"/><path d="m44.852 154.556c3.877 1.465 8.203-.493 9.665-4.368l7.436-19.703h49.979l7.512 19.724c1.14 2.993 3.987 4.833 7.01 4.833.888 0 1.79-.158 2.668-.493 3.871-1.475 5.814-5.808 4.34-9.678l-37.55-98.592c-.021-.058-.044-.114-.067-.171-1.507-3.684-5.052-6.065-9.03-6.068-.003 0-.006 0-.009 0-3.976 0-7.521 2.375-9.032 6.053-.028.067-.055.135-.08.203l-37.209 98.596c-1.464 3.874.492 8.202 4.367 9.664zm41.975-89.985 19.391 50.913h-38.605z"/><path d="m166.5 105.039h125c4.143 0 7.5-3.357 7.5-7.5s-3.357-7.5-7.5-7.5h-125c-4.143 0-7.5 3.357-7.5 7.5s3.357 7.5 7.5 7.5z"/><path d="m166.5 133.039h95c4.143 0 7.5-3.357 7.5-7.5s-3.357-7.5-7.5-7.5h-95c-4.143 0-7.5 3.357-7.5 7.5s3.357 7.5 7.5 7.5z"/><path d="m326 235.039h-125c-4.143 0-7.5 3.357-7.5 7.5s3.357 7.5 7.5 7.5h125c4.143 0 7.5-3.357 7.5-7.5s-3.357-7.5-7.5-7.5z"/><path d="m201 278.039h95c4.143 0 7.5-3.357 7.5-7.5s-3.357-7.5-7.5-7.5h-95c-4.143 0-7.5 3.357-7.5 7.5s3.357 7.5 7.5 7.5z"/><path d="m371.5 326.54c0-4.143-3.357-7.5-7.5-7.5h-132.999c-4.143 0-7.5 3.357-7.5 7.5s3.357 7.5 7.5 7.5h132.999c4.143 0 7.5-3.358 7.5-7.5z"/><path d="m445.501 319.04h-46.501c-4.143 0-7.5 3.357-7.5 7.5s3.357 7.5 7.5 7.5h46.501c4.143 0 7.5-3.357 7.5-7.5s-3.357-7.5-7.5-7.5z"/><path d="m201.001 347.04c-4.143 0-7.5 3.357-7.5 7.5s3.357 7.5 7.5 7.5h65.999c4.143 0 7.5-3.357 7.5-7.5s-3.357-7.5-7.5-7.5z"/><path d="m453.001 354.54c0-4.143-3.357-7.5-7.5-7.5h-143.501c-4.143 0-7.5 3.357-7.5 7.5s3.357 7.5 7.5 7.5h143.501c4.143 0 7.5-3.358 7.5-7.5z"/><path d="m201.001 390.04h184.5c4.143 0 7.5-3.357 7.5-7.5s-3.357-7.5-7.5-7.5h-184.5c-4.143 0-7.5 3.357-7.5 7.5s3.357 7.5 7.5 7.5z"/></g></svg>