<svg width="76" height="72" viewBox="0 0 76 72" fill="none" xmlns="http://www.w3.org/2000/svg">
<path d="M17.2541 64C9.57086 64 4.75779 55.6955 8.57721 49.0289L27.9898 15.1451C31.8313 8.43991 41.502 8.4399 45.3435 15.1451L52.152 27.0289C53.9161 30.1082 53.9161 33.8918 52.152 36.9711L39.5478 58.9711C37.7659 62.0814 34.4555 64 30.8709 64H17.2541Z" fill="#ECDD7B"/>
<path d="M54.3039 48C56.6133 44 62.3868 44 64.6962 48L68.5933 54.75C70.9027 58.75 68.0159 63.75 63.3971 63.75H55.6029C50.9841 63.75 48.0973 58.75 50.4067 54.75L54.3039 48Z" fill="#FA554E"/>
</svg>
